<svg version="1.1" xmlns="http://www.w3.org/2000/svg" viewBox="0 0 305 511" width="305" height="511">
  <!-- svg-source:excalidraw -->
  
  <defs>
    <style>
      @font-face {
        font-family: "Virgil";
        src: url("https://excalidraw.com/Virgil.woff2");
      }
      @font-face {
        font-family: "Cascadia";
        src: url("https://excalidraw.com/Cascadia.woff2");
      }
    </style>
  </defs>
  <rect x="0" y="0" width="305" height="511" fill="#ffffff"></rect><g stroke-linecap="round" transform="translate(10 53) rotate(0 142.5 224)"><path d="M0.95 -1.42 C74.04 -1.96, 149.17 -0.77, 284.01 0.52 M-0.01 0.73 C89.52 1.54, 180.75 2.4, 285.68 -0.6 M284.52 -0.53 C284.65 130.84, 283.51 262.94, 284.23 447.5 M284.8 -0.1 C287.17 97.4, 286.57 195.11, 284.81 448.45 M286.06 447.6 C225.31 448.25, 163.61 450.44, -0.48 449.51 M285.01 448.54 C204.86 448.02, 125.49 448.36, 0.38 448.7 M0.86 448.39 C-1.82 338.41, -2.08 229.93, 0.75 0.75 M0.25 448.4 C0.28 285.19, 0.31 122.24, -0.31 0.14" stroke="#000000" stroke-width="1" fill="none"></path></g><g transform="translate(58 10) rotate(0 92.5 12.5)"><text x="0" y="18" font-family="Virgil, Segoe UI Emoji" font-size="20px" fill="#000000" text-anchor="start" style="white-space: pre;" direction="ltr">Crear Ingredientes</text></g><g stroke-linecap="round" transform="translate(44 174) rotate(0 106.5 14.5)"><path d="M-0.73 -0.95 C83.48 0.77, 168.25 -0.66, 211.5 -1.37 M0.71 -0.28 C73.76 -1.69, 146.63 -1.21, 212.27 -0.27 M211.64 1.01 C213.8 4.62, 212.21 11.93, 211.21 28.26 M212.47 -0.51 C213.5 11.04, 213.48 22.88, 212.1 28.68 M212.34 27.52 C156.95 27.69, 101.78 29.3, 1.66 28.92 M212.57 28.65 C133.54 29.17, 53.12 29.41, 0.15 28.47 M0.58 30.84 C0.44 19.76, -1.29 13.75, 0.07 -1.71 M-0.32 29.6 C-0.95 17.44, -0.02 6.48, 0.99 -0.72" stroke="#000000" stroke-width="1" fill="none"></path></g><g transform="translate(48 140) rotate(0 34 12.5)"><text x="0" y="18" font-family="Virgil, Segoe UI Emoji" font-size="20px" fill="#000000" text-anchor="start" style="white-space: pre;" direction="ltr">Nombre</text></g><g stroke-linecap="round" transform="translate(42 260) rotate(0 106.5 14.5)"><path d="M1.63 -0.94 C74.04 -2.56, 148.46 -0.96, 211.43 1.19 M-0.75 -0.73 C85.81 -0.77, 169.01 -0.07, 212.49 -0.72 M214.88 0.54 C211.51 8.75, 212.42 13.87, 214.39 28.58 M213.91 0.7 C212.01 10.42, 212.25 19.46, 213.85 29.79 M213.27 28.23 C138.54 30.71, 62.19 29.33, 1.66 29.7 M212.69 29.31 C161.76 29.38, 112.76 28.9, -0.84 28.64 M-0.14 27.65 C-1.05 20.23, -0.15 10.77, 0.76 0.1 M0.97 28.67 C-0.81 19.72, -0.04 11.35, 0.25 -0.99" stroke="#000000" stroke-width="1" fill="none"></path></g><g transform="translate(46 226) rotate(0 29.5 12.5)"><text x="0" y="18" font-family="Virgil, Segoe UI Emoji" font-size="20px" fill="#000000" text-anchor="start" style="white-space: pre;" direction="ltr">Costo</text></g><g stroke-linecap="round" transform="translate(38 356) rotate(0 52.5 21)"><path d="M1.35 -0.42 C32.35 1.58, 66.56 1.15, 103.25 1.53 M0.22 -0.58 C37.96 -0.96, 76.12 -1.09, 104.28 -0.17 M106.38 1 C103.23 12.51, 103.38 25.44, 105.61 41.32 M105.62 0.66 C104.11 15.49, 105.93 30.17, 105.19 41.79 M103.67 42.19 C83.66 41.48, 60.35 44.37, 1.64 41.05 M104.36 41.59 C64.87 42.88, 24.94 42.87, -0.95 41.35 M-0.95 41.77 C-0.73 30.74, -0.92 19.01, -1.63 0.13 M0.52 42 C0.09 31.67, -0.03 19.41, 0.75 0.23" stroke="#000000" stroke-width="1" fill="none"></path></g><g transform="translate(48 364) rotate(0 42 12.5)"><text x="0" y="18" font-family="Virgil, Segoe UI Emoji" font-size="20px" fill="#000000" text-anchor="start" style="white-space: pre;" direction="ltr">Guardar</text></g><g stroke-linecap="round" transform="translate(159 355) rotate(0 52.5 21)"><path d="M1.11 0.09 C36.84 -0.23, 72.03 0.81, 104.15 -0.17 M-0.73 0.87 C42.03 -0.83, 83.19 -0.89, 105.72 0.98 M105.9 -1.14 C102.62 9.43, 105.55 18.41, 105.74 43.67 M105.13 -0.05 C105.96 16.03, 105.83 33.77, 105.52 42.61 M106.54 42.59 C84.16 43.15, 61.29 40.37, 0.48 40.35 M105.71 42.53 C76.17 40.86, 46.74 41.29, 0.64 41.86 M-1.81 43.16 C0.69 29.29, 0.43 11.9, -0.97 0.29 M-0.13 41.35 C-0.77 28.1, 0.96 14.75, -0.4 0.53" stroke="#000000" stroke-width="1" fill="none"></path></g><g transform="translate(169 363) rotate(0 43 12.5)"><text x="0" y="18" font-family="Virgil, Segoe UI Emoji" font-size="20px" fill="#000000" text-anchor="start" style="white-space: pre;" direction="ltr">Cancelar</text></g></svg>