<svg version="1.1" xmlns="http://www.w3.org/2000/svg" viewBox="0 0 512 570" width="512" height="570">
  <!-- svg-source:excalidraw -->
  
  <defs>
    <style>
      @font-face {
        font-family: "Virgil";
        src: url("https://excalidraw.com/Virgil.woff2");
      }
      @font-face {
        font-family: "Cascadia";
        src: url("https://excalidraw.com/Cascadia.woff2");
      }
    </style>
  </defs>
  <rect x="0" y="0" width="512" height="570" fill="#ffffff"></rect><g stroke-linecap="round" transform="translate(79 58) rotate(0 142.5 224)"><path d="M-0.97 0.72 C113.86 2.64, 225.98 3.47, 286.2 -1.5 M0.74 0.63 C108.75 -1.21, 217.86 -2.33, 284.89 -0.09 M285.05 0.64 C284.8 155.72, 285.19 310.04, 284.19 447.08 M285.49 -0.07 C284.26 108.62, 284.28 216.39, 285.48 448.48 M286.25 448.6 C209.48 447.79, 131.2 447.11, 0.8 448.15 M284.25 448.29 C208.96 450.49, 131.82 449.85, -0.54 448.49 M-0.36 447.66 C1.75 273.16, 0.85 99.9, -0.35 0.74 M-0.37 448.32 C-1.68 275.74, -1.88 103.97, -0.46 0.13" stroke="#000000" stroke-width="1" fill="none"></path></g><g transform="translate(183 10) rotate(0 35 12.5)"><text x="0" y="18" font-family="Virgil, Segoe UI Emoji" font-size="20px" fill="#000000" text-anchor="start" style="white-space: pre;" direction="ltr">Layout</text></g><g stroke-linecap="round" transform="translate(78.5 459.5) rotate(0 141.5 23.5)"><path d="M-1.11 -0.62 C66.03 2.95, 133.4 0.8, 282.58 0.18 M0.63 0.41 C95.09 -1.11, 190.85 -1.39, 282.48 -0.09 M283.65 0.81 C283.49 18.46, 283.13 35.86, 284.08 46.34 M282.96 -0.16 C283.19 13.37, 283.98 28.1, 283.35 46.65 M282.94 45.7 C170.32 47.94, 58.65 48.68, -0.46 47.43 M283.52 46.99 C187.35 45.46, 92.3 45.86, -0.13 47.07 M-0.07 48.84 C-1.6 30.84, 0.99 11.37, 0.29 0.24 M-0.07 46.91 C0.15 30.95, -0.52 13.79, -0.14 -0.03" stroke="#000000" stroke-width="1" fill="none"></path></g><g transform="translate(453 470) rotate(0 24.5 12.5)"><text x="0" y="18" font-family="Virgil, Segoe UI Emoji" font-size="20px" fill="#000000" text-anchor="start" style="white-space: pre;" direction="ltr">Menu</text></g><g stroke-linecap="round"><g transform="translate(438.5 480.04678251732685) rotate(0 -25.901544186435615 1.2073662733060928)"><path d="M0.11 0.82 C-8.58 0.97, -42.48 0.92, -51.32 0.93 M-1.3 0.21 C-10.15 0.51, -43.71 1.92, -51.91 2.2" stroke="#000000" stroke-width="1" fill="none"></path></g><g transform="translate(438.5 480.04678251732685) rotate(0 -25.901544186435615 1.2073662733060928)"><path d="M-26.46 -6.5 C-37.51 -5.52, -46.42 0.52, -50.23 3.68 M-27.38 -7.17 C-33.49 -5.7, -40.19 -2.72, -51.56 2.8" stroke="#000000" stroke-width="1" fill="none"></path></g><g transform="translate(438.5 480.04678251732685) rotate(0 -25.901544186435615 1.2073662733060928)"><path d="M-25.77 11.28 C-37.08 5.73, -46.24 5.23, -50.23 3.68 M-26.7 10.61 C-33.12 7.39, -40 5.71, -51.56 2.8" stroke="#000000" stroke-width="1" fill="none"></path></g></g><g transform="translate(10 532) rotate(0 41.5 12.5)"><text x="0" y="18" font-family="Virgil, Segoe UI Emoji" font-size="20px" fill="#000000" text-anchor="start" style="white-space: pre;" direction="ltr">Recetas</text></g><g transform="translate(121 534) rotate(0 60.5 12.5)"><text x="0" y="18" font-family="Virgil, Segoe UI Emoji" font-size="20px" fill="#000000" text-anchor="start" style="white-space: pre;" direction="ltr">Ingredientes</text></g><g stroke-linecap="round" transform="translate(95.5 466.5) rotate(0 24.5 14.5)"><path d="M16.06 1.25 C20.74 0.34, 28.11 0.71, 32.98 1.63 C37.85 2.56, 42.62 4.24, 45.29 6.8 C47.97 9.36, 50.03 13.73, 49.02 16.97 C48.01 20.2, 43.49 24.18, 39.23 26.21 C34.97 28.25, 28.7 29.48, 23.46 29.18 C18.22 28.89, 11.65 26.69, 7.78 24.44 C3.91 22.2, 0.96 18.69, 0.23 15.69 C-0.49 12.7, 0.35 8.98, 3.43 6.46 C6.52 3.94, 16.06 1.64, 18.75 0.55 C21.44 -0.54, 19.58 -0.39, 19.58 -0.09 M33.74 0.72 C38.49 1.56, 44.89 5.6, 47.34 8.34 C49.79 11.08, 49.69 14.29, 48.47 17.14 C47.26 19.99, 44.53 23.69, 40.03 25.43 C35.54 27.17, 26.98 27.44, 21.49 27.58 C16.01 27.72, 10.84 28.36, 7.14 26.27 C3.44 24.17, -0.4 18.44, -0.7 15.02 C-0.99 11.6, 2.09 8.29, 5.36 5.74 C8.63 3.18, 13.96 0.34, 18.91 -0.29 C23.86 -0.92, 32.2 1.7, 35.04 1.95 C37.87 2.2, 36.1 1.28, 35.92 1.21" stroke="#000000" stroke-width="1" fill="none"></path></g><g stroke-linecap="round"><g transform="translate(140.5 472.5) rotate(0 -21.34467868907379 8.359945175824691)"><path d="M-0.75 -1.11 C-7.75 1.89, -35.76 13.85, -42.53 16.88 M1.06 0.92 C-6.1 4.12, -36.62 15, -43.75 17.83" stroke="#000000" stroke-width="1" fill="none"></path></g></g><g stroke-linecap="round"><g transform="translate(102.5 470.5) rotate(0 17.57105275280773 10.517960586873812)"><path d="M-0.53 -1.12 C5.54 2.58, 29.63 17.41, 35.67 21.09 M1.4 0.91 C7.43 4.83, 29.43 18.68, 35.07 22.15" stroke="#000000" stroke-width="1" fill="none"></path></g></g><g stroke-linecap="round" transform="translate(160.5 466.5) rotate(0 24.5 14.5)"><path d="M22.94 -0.86 C28.05 -1.27, 34.37 1.58, 38.56 3.51 C42.75 5.43, 46.72 7.83, 48.08 10.7 C49.44 13.56, 48.81 17.88, 46.73 20.69 C44.64 23.5, 40.4 26.4, 35.57 27.55 C30.75 28.7, 22.78 28.21, 17.77 27.59 C12.75 26.97, 8.31 26.06, 5.5 23.84 C2.69 21.62, 0.73 17.65, 0.9 14.25 C1.06 10.86, 2.61 5.74, 6.49 3.45 C10.37 1.17, 21.29 1.09, 24.19 0.53 C27.1 -0.04, 23.94 0.02, 23.95 0.05 M28.68 1.5 C33.69 1.64, 40.28 2.93, 43.65 5.02 C47.02 7.11, 48.84 10.97, 48.92 14.05 C48.99 17.13, 47.42 20.85, 44.1 23.5 C40.77 26.14, 34.2 29.11, 28.96 29.94 C23.72 30.77, 17.24 30.28, 12.64 28.47 C8.05 26.65, 3.1 22.13, 1.41 19.04 C-0.29 15.95, 0.6 12.55, 2.48 9.93 C4.36 7.31, 8.28 4.99, 12.67 3.33 C17.06 1.68, 26.01 0.36, 28.8 0.01 C31.6 -0.34, 29.36 0.94, 29.45 1.22" stroke="#000000" stroke-width="1" fill="none"></path></g><g stroke-linecap="round"><g transform="translate(205.5 472.5) rotate(0 -21.024864903353148 8.959425150230572)"><path d="M-0.23 -1.03 C-7.08 2.29, -34.11 15.74, -41.26 18.95 M-1.81 1.05 C-8.74 4.12, -35.32 14.22, -41.82 17.32" stroke="#000000" stroke-width="1" fill="none"></path></g></g><g stroke-linecap="round"><g transform="translate(167.5 470.5) rotate(0 17.838833739608503 11.307299993149911)"><path d="M0.74 0.95 C6.43 4.82, 27.98 18.72, 33.88 22.22 M-0.33 0.4 C5.73 3.97, 29.96 16.4, 36.01 20.21" stroke="#000000" stroke-width="1" fill="none"></path></g></g><g stroke-linecap="round" transform="translate(229.5 466.5) rotate(0 24.5 14.5)"><path d="M17.6 1.76 C22.2 0.66, 28.57 -0.62, 33.43 0.25 C38.3 1.13, 44.1 4.25, 46.78 6.99 C49.46 9.73, 50.79 13.4, 49.51 16.69 C48.24 19.99, 43.25 24.82, 39.12 26.78 C34.99 28.74, 29.95 28.83, 24.74 28.47 C19.53 28.11, 11.93 26.47, 7.86 24.62 C3.78 22.78, 1.04 20.27, 0.28 17.41 C-0.47 14.55, -0.84 10.33, 3.33 7.46 C7.51 4.59, 20.44 1.18, 25.32 0.19 C30.2 -0.8, 32.67 1.28, 32.61 1.5 M21.8 -1.08 C26.65 -1.65, 32.05 -0.03, 36.52 1.87 C41 3.78, 46.78 7.32, 48.63 10.35 C50.48 13.38, 49.83 17.17, 47.6 20.06 C45.38 22.95, 39.94 26.13, 35.26 27.7 C30.58 29.27, 24.66 30.18, 19.55 29.47 C14.43 28.77, 8.01 25.84, 4.56 23.47 C1.11 21.1, -1.69 18.24, -1.16 15.25 C-0.63 12.26, 4.18 8.17, 7.75 5.52 C11.32 2.86, 17.8 0.23, 20.25 -0.67 C22.7 -1.58, 22.49 -0.41, 22.46 0.1" stroke="#000000" stroke-width="1" fill="none"></path></g><g stroke-linecap="round"><g transform="translate(274.5 472.5) rotate(0 -21.037452350668616 9.177580875568083)"><path d="M-0.78 0.16 C-8.12 3.16, -36.41 16.17, -43.08 19.15 M1 -0.8 C-6.06 2.4, -33.94 14.27, -40.93 17.64" stroke="#000000" stroke-width="1" fill="none"></path></g></g><g stroke-linecap="round"><g transform="translate(236.5 470.5) rotate(0 17.55388334505261 12.165407929867456)"><path d="M-1.08 1.15 C5.08 4.8, 30.32 18.42, 36.19 22.05 M0.55 0.72 C6.73 4.56, 29.86 20.22, 35.86 23.62" stroke="#000000" stroke-width="1" fill="none"></path></g></g><g stroke-linecap="round"><g transform="translate(178.67164907950837 529.5) rotate(0 0.44635530187935046 -15.655006404934454)"><path d="M0.62 -1.04 C0.67 -6.36, 1.12 -26.98, 1.45 -32.33 M-0.51 1.02 C-0.74 -4.04, -0.07 -25.22, 0.41 -30.76" stroke="#000000" stroke-width="1" fill="none"></path></g><g transform="translate(178.67164907950837 529.5) rotate(0 0.44635530187935046 -15.655006404934454)"><path d="M3.71 -15.49 C3.4 -20.07, 0.43 -27.78, 0.54 -29.8 M4.61 -14.75 C3.49 -18.07, 3.13 -21.24, 0.39 -30.51" stroke="#000000" stroke-width="1" fill="none"></path></g><g transform="translate(178.67164907950837 529.5) rotate(0 0.44635530187935046 -15.655006404934454)"><path d="M-7.37 -16.09 C-3.28 -20.49, -1.85 -27.96, 0.54 -29.8 M-6.47 -15.35 C-5.26 -18.58, -3.28 -21.62, 0.39 -30.51" stroke="#000000" stroke-width="1" fill="none"></path></g></g><g stroke-linecap="round"><g transform="translate(81.97941892320796 531) rotate(0 11.554966291199406 -13.578800416263164)"><path d="M-1.05 0.3 C3.08 -4.36, 20 -23.13, 24.16 -27.45 M0.6 -0.59 C4.7 -5.14, 19.86 -21.79, 23.68 -26.25" stroke="#000000" stroke-width="1" fill="none"></path></g><g transform="translate(81.97941892320796 531) rotate(0 11.554966291199406 -13.578800416263164)"><path d="M17.6 -8.43 C17.76 -12.82, 22.03 -18.38, 22.4 -24.55 M17.43 -10.17 C19.62 -16.41, 21.55 -20.99, 23.81 -25.62" stroke="#000000" stroke-width="1" fill="none"></path></g><g transform="translate(81.97941892320796 531) rotate(0 11.554966291199406 -13.578800416263164)"><path d="M8.52 -16.48 C10.95 -18.8, 17.47 -22.36, 22.4 -24.55 M8.34 -18.22 C13.8 -21.53, 18.98 -23.22, 23.81 -25.62" stroke="#000000" stroke-width="1" fill="none"></path></g></g><g stroke-linecap="round"><g transform="translate(269.8259418018048 534) rotate(0 -13.569346314532538 -18.69152694696203)"><path d="M0.85 0.59 C-3.82 -5.51, -22.54 -29.94, -27.28 -36.42 M-0.16 -0.15 C-5.02 -6.57, -23.3 -31.76, -27.99 -37.97" stroke="#000000" stroke-width="1" fill="none"></path></g><g transform="translate(269.8259418018048 534) rotate(0 -13.569346314532538 -18.69152694696203)"><path d="M-7.56 -24.32 C-13.84 -29.45, -24.07 -35.06, -29.91 -39.74 M-7.97 -25.31 C-13.65 -27.29, -17.4 -30.72, -27.37 -37.29" stroke="#000000" stroke-width="1" fill="none"></path></g><g transform="translate(269.8259418018048 534) rotate(0 -13.569346314532538 -18.69152694696203)"><path d="M-20.4 -14.84 C-22.01 -23.51, -27.55 -32.58, -29.91 -39.74 M-20.8 -15.83 C-23.9 -19.76, -24.99 -25.16, -27.37 -37.29" stroke="#000000" stroke-width="1" fill="none"></path></g></g><g transform="translate(267 535) rotate(0 37.5 12.5)"><text x="0" y="18" font-family="Virgil, Segoe UI Emoji" font-size="20px" fill="#000000" text-anchor="start" style="white-space: pre;" direction="ltr">Pedidos</text></g><g stroke-linecap="round"><g transform="translate(372.5 538.3467112340429) rotate(0 -14.376961209358115 -20.80424035500073)"><path d="M0.18 -0.84 C-4.6 -8.08, -24.06 -35.98, -28.93 -42.94 M-1.18 1.33 C-5.58 -5.76, -22.52 -34.41, -26.78 -41.5" stroke="#000000" stroke-width="1" fill="none"></path></g><g transform="translate(372.5 538.3467112340429) rotate(0 -14.376961209358115 -20.80424035500073)"><path d="M-8.42 -27.16 C-12.89 -31.77, -17.82 -34.17, -26.66 -40.04 M-6.3 -24.74 C-12.15 -28.47, -15.61 -33.91, -27.29 -40.58" stroke="#000000" stroke-width="1" fill="none"></path></g><g transform="translate(372.5 538.3467112340429) rotate(0 -14.376961209358115 -20.80424035500073)"><path d="M-23.41 -18.22 C-23.75 -25.34, -24.52 -30.22, -26.66 -40.04 M-21.29 -15.81 C-23.53 -21.73, -23.44 -29.29, -27.29 -40.58" stroke="#000000" stroke-width="1" fill="none"></path></g></g><g transform="translate(374 533) rotate(0 27 12.5)"><text x="0" y="18" font-family="Virgil, Segoe UI Emoji" font-size="20px" fill="#000000" text-anchor="start" style="white-space: pre;" direction="ltr">Perfil</text></g><g stroke-linecap="round" transform="translate(299.5 466.5) rotate(0 24.5 14.5)"><path d="M16.95 0.34 C21.67 -0.55, 29.23 0.18, 34.08 1.48 C38.94 2.78, 43.68 5.24, 46.09 8.13 C48.49 11.02, 49.58 15.78, 48.49 18.81 C47.41 21.84, 43.78 24.47, 39.58 26.32 C35.38 28.17, 28.76 30.29, 23.27 29.9 C17.78 29.51, 10.37 26.17, 6.65 23.98 C2.92 21.78, 1.42 19.7, 0.92 16.74 C0.42 13.78, 0.33 9.02, 3.64 6.22 C6.94 3.42, 17.2 0.83, 20.74 -0.08 C24.28 -0.99, 24.85 0.42, 24.87 0.74 M22.92 0.79 C27.74 0.59, 35.42 2.12, 39.82 3.84 C44.22 5.57, 48.29 8.06, 49.33 11.16 C50.37 14.26, 48.48 19.6, 46.04 22.46 C43.61 25.31, 39.68 27.37, 34.72 28.3 C29.75 29.23, 21.54 29.15, 16.26 28.02 C10.97 26.88, 5.46 23.98, 3 21.49 C0.54 19, 0.91 16.05, 1.5 13.06 C2.1 10.07, 3 5.57, 6.56 3.54 C10.11 1.51, 20.01 1.48, 22.82 0.87 C25.63 0.25, 23.09 -0.07, 23.42 -0.13" stroke="#000000" stroke-width="1" fill="none"></path></g><g stroke-linecap="round"><g transform="translate(344.5 472.5) rotate(0 -20.695998155800623 8.662326919566851)"><path d="M1.19 0.12 C-5.68 3.05, -34.71 14.16, -41.76 17.11 M0.35 -0.86 C-6.6 2.23, -35.62 14.86, -42.58 18.18" stroke="#000000" stroke-width="1" fill="none"></path></g></g><g stroke-linecap="round"><g transform="translate(306.5 470.5) rotate(0 17.402420942755384 11.289124216912342)"><path d="M0.38 -0.9 C6.13 2.89, 29.86 18.22, 35.68 21.96 M-0.88 1.24 C4.67 5.3, 29.15 19.92, 35.09 23.48" stroke="#000000" stroke-width="1" fill="none"></path></g></g></svg>